<?xml version="1.0" encoding="UTF-8" ?>
<svg version="1.1" width="320" height="320" xmlns="http://www.w3.org/2000/svg" shape-rendering="crispEdges">
<rect x="10" y="0" width="300" height="10" fill="#FFFFFF" />
<rect x="0" y="10" width="10" height="300" fill="#FFFFFF" />
<rect x="310" y="10" width="10" height="300" fill="#FFFFFF" />
<rect x="120" y="20" width="90" height="70" fill="#FFFFFF" />
<rect x="90" y="30" width="30" height="50" fill="#FFFFFF" />
<rect x="210" y="30" width="20" height="50" fill="#FFFFFF" />
<rect x="80" y="40" width="10" height="40" fill="#FFFFFF" />
<rect x="230" y="40" width="10" height="40" fill="#FFFFFF" />
<rect x="70" y="50" width="10" height="80" fill="#FFFFFF" />
<rect x="240" y="50" width="10" height="80" fill="#FFFFFF" />
<rect x="60" y="60" width="10" height="160" fill="#FFFFFF" />
<rect x="250" y="60" width="10" height="200" fill="#FFFFFF" />
<rect x="50" y="70" width="10" height="180" fill="#FFFFFF" />
<rect x="260" y="70" width="10" height="180" fill="#FFFFFF" />
<rect x="80" y="80" width="30" height="30" fill="#000000" />
<rect x="110" y="80" width="10" height="10" fill="#FFFFFF" />
<rect x="210" y="80" width="30" height="30" fill="#000000" />
<rect x="40" y="90" width="10" height="150" fill="#FFFFFF" />
<rect x="110" y="90" width="10" height="130" fill="#000000" />
<rect x="120" y="90" width="10" height="10" fill="#FFFFFF" />
<rect x="130" y="90" width="60" height="130" fill="#000000" />
<rect x="190" y="90" width="10" height="10" fill="#FFFFFF" />
<rect x="200" y="90" width="10" height="130" fill="#000000" />
<rect x="270" y="90" width="10" height="150" fill="#FFFFFF" />
<rect x="120" y="100" width="10" height="120" fill="#000000" />
<rect x="190" y="100" width="10" height="120" fill="#000000" />
<rect x="30" y="110" width="10" height="110" fill="#FFFFFF" />
<rect x="80" y="110" width="10" height="10" fill="#FFFFFF" />
<rect x="90" y="110" width="20" height="100" fill="#000000" />
<rect x="210" y="110" width="20" height="100" fill="#000000" />
<rect x="230" y="110" width="10" height="10" fill="#FFFFFF" />
<rect x="280" y="110" width="10" height="110" fill="#FFFFFF" />
<rect x="80" y="120" width="10" height="80" fill="#000000" />
<rect x="230" y="120" width="10" height="80" fill="#000000" />
<rect x="20" y="130" width="10" height="70" fill="#FFFFFF" />
<rect x="70" y="130" width="10" height="60" fill="#000000" />
<rect x="240" y="130" width="10" height="60" fill="#000000" />
<rect x="290" y="130" width="10" height="70" fill="#FFFFFF" />
<rect x="70" y="190" width="10" height="30" fill="#FFFFFF" />
<rect x="240" y="190" width="10" height="80" fill="#FFFFFF" />
<rect x="80" y="200" width="10" height="30" fill="#FFFFFF" />
<rect x="230" y="200" width="10" height="80" fill="#FFFFFF" />
<rect x="90" y="210" width="10" height="30" fill="#FFFFFF" />
<rect x="100" y="210" width="10" height="10" fill="#000000" />
<rect x="210" y="210" width="10" height="10" fill="#000000" />
<rect x="220" y="210" width="10" height="80" fill="#FFFFFF" />
<rect x="60" y="220" width="20" height="10" fill="#000000" />
<rect x="100" y="220" width="40" height="10" fill="#FFFFFF" />
<rect x="140" y="220" width="40" height="80" fill="#000000" />
<rect x="180" y="220" width="40" height="10" fill="#FFFFFF" />
<rect x="60" y="230" width="10" height="30" fill="#FFFFFF" />
<rect x="70" y="230" width="20" height="10" fill="#000000" />
<rect x="100" y="230" width="30" height="10" fill="#FFFFFF" />
<rect x="130" y="230" width="10" height="70" fill="#000000" />
<rect x="180" y="230" width="10" height="70" fill="#000000" />
<rect x="190" y="230" width="30" height="10" fill="#FFFFFF" />
<rect x="70" y="240" width="10" height="30" fill="#FFFFFF" />
<rect x="80" y="240" width="20" height="10" fill="#000000" />
<rect x="100" y="240" width="20" height="10" fill="#FFFFFF" />
<rect x="120" y="240" width="10" height="20" fill="#000000" />
<rect x="190" y="240" width="10" height="60" fill="#000000" />
<rect x="200" y="240" width="20" height="50" fill="#FFFFFF" />
<rect x="80" y="250" width="10" height="30" fill="#FFFFFF" />
<rect x="90" y="250" width="30" height="10" fill="#000000" />
<rect x="90" y="260" width="40" height="30" fill="#FFFFFF" />
<rect x="110" y="290" width="20" height="10" fill="#FFFFFF" />
<rect x="200" y="290" width="10" height="10" fill="#FFFFFF" />
<rect x="10" y="310" width="300" height="10" fill="#FFFFFF" />
</svg>