<?xml version="1.0" encoding="UTF-8" ?>
<svg version="1.1" width="760" height="760" xmlns="http://www.w3.org/2000/svg" shape-rendering="crispEdges">
<rect x="750" y="0" width="10" height="10" fill="#333333" />
<rect x="740" y="10" width="10" height="10" fill="#333333" />
<rect x="730" y="20" width="10" height="10" fill="#333333" />
<rect x="720" y="30" width="10" height="10" fill="#333333" />
<rect x="700" y="40" width="20" height="20" fill="#333333" />
<rect x="690" y="50" width="10" height="30" fill="#333333" />
<rect x="680" y="60" width="10" height="10" fill="#333333" />
<rect x="700" y="60" width="10" height="10" fill="#333333" />
<rect x="660" y="70" width="20" height="10" fill="#333333" />
<rect x="680" y="70" width="10" height="10" fill="#666666" />
<rect x="640" y="80" width="30" height="10" fill="#333333" />
<rect x="670" y="80" width="10" height="10" fill="#666666" />
<rect x="680" y="80" width="10" height="20" fill="#333333" />
<rect x="610" y="90" width="50" height="10" fill="#333333" />
<rect x="660" y="90" width="10" height="10" fill="#666666" />
<rect x="670" y="90" width="10" height="30" fill="#333333" />
<rect x="570" y="100" width="70" height="10" fill="#333333" />
<rect x="640" y="100" width="20" height="20" fill="#666666" />
<rect x="660" y="100" width="10" height="50" fill="#333333" />
<rect x="490" y="110" width="140" height="10" fill="#333333" />
<rect x="630" y="110" width="10" height="30" fill="#666666" />
<rect x="330" y="120" width="290" height="10" fill="#333333" />
<rect x="620" y="120" width="10" height="10" fill="#666666" />
<rect x="640" y="120" width="10" height="10" fill="#666666" />
<rect x="650" y="120" width="10" height="70" fill="#333333" />
<rect x="300" y="130" width="300" height="10" fill="#333333" />
<rect x="600" y="130" width="20" height="10" fill="#666666" />
<rect x="620" y="130" width="10" height="10" fill="#999999" />
<rect x="640" y="130" width="10" height="140" fill="#333333" />
<rect x="270" y="140" width="320" height="10" fill="#333333" />
<rect x="590" y="140" width="20" height="10" fill="#666666" />
<rect x="610" y="140" width="10" height="10" fill="#999999" />
<rect x="620" y="140" width="10" height="20" fill="#666666" />
<rect x="630" y="140" width="10" height="290" fill="#333333" />
<rect x="250" y="150" width="320" height="10" fill="#333333" />
<rect x="570" y="150" width="30" height="10" fill="#666666" />
<rect x="600" y="150" width="10" height="10" fill="#999999" />
<rect x="610" y="150" width="10" height="20" fill="#666666" />
<rect x="240" y="160" width="290" height="10" fill="#333333" />
<rect x="530" y="160" width="50" height="10" fill="#666666" />
<rect x="580" y="160" width="20" height="10" fill="#999999" />
<rect x="600" y="160" width="10" height="30" fill="#666666" />
<rect x="620" y="160" width="10" height="300" fill="#333333" />
<rect x="230" y="170" width="100" height="10" fill="#333333" />
<rect x="330" y="170" width="240" height="10" fill="#666666" />
<rect x="570" y="170" width="10" height="10" fill="#999999" />
<rect x="580" y="170" width="10" height="10" fill="#CCCCCC" />
<rect x="590" y="170" width="10" height="10" fill="#999999" />
<rect x="610" y="170" width="10" height="320" fill="#333333" />
<rect x="210" y="180" width="90" height="10" fill="#333333" />
<rect x="300" y="180" width="250" height="10" fill="#666666" />
<rect x="550" y="180" width="20" height="10" fill="#999999" />
<rect x="570" y="180" width="10" height="10" fill="#CCCCCC" />
<rect x="580" y="180" width="10" height="10" fill="#999999" />
<rect x="590" y="180" width="10" height="50" fill="#666666" />
<rect x="200" y="190" width="80" height="10" fill="#333333" />
<rect x="280" y="190" width="250" height="10" fill="#666666" />
<rect x="530" y="190" width="30" height="10" fill="#999999" />
<rect x="560" y="190" width="10" height="10" fill="#CCCCCC" />
<rect x="570" y="190" width="10" height="20" fill="#999999" />
<rect x="580" y="190" width="10" height="240" fill="#666666" />
<rect x="600" y="190" width="10" height="320" fill="#333333" />
<rect x="190" y="200" width="70" height="10" fill="#333333" />
<rect x="260" y="200" width="80" height="10" fill="#666666" />
<rect x="340" y="200" width="80" height="20" fill="#999999" />
<rect x="420" y="200" width="80" height="10" fill="#666666" />
<rect x="500" y="200" width="40" height="10" fill="#999999" />
<rect x="540" y="200" width="20" height="10" fill="#CCCCCC" />
<rect x="560" y="200" width="10" height="30" fill="#999999" />
<rect x="180" y="210" width="70" height="10" fill="#333333" />
<rect x="250" y="210" width="60" height="10" fill="#666666" />
<rect x="310" y="210" width="30" height="20" fill="#999999" />
<rect x="420" y="210" width="110" height="10" fill="#999999" />
<rect x="530" y="210" width="10" height="10" fill="#CCCCCC" />
<rect x="540" y="210" width="10" height="10" fill="#FFFFFF" />
<rect x="550" y="210" width="10" height="10" fill="#CCCCCC" />
<rect x="570" y="210" width="10" height="250" fill="#666666" />
<rect x="180" y="220" width="60" height="10" fill="#333333" />
<rect x="240" y="220" width="50" height="10" fill="#666666" />
<rect x="290" y="220" width="20" height="20" fill="#999999" />
<rect x="340" y="220" width="80" height="10" fill="#CCCCCC" />
<rect x="420" y="220" width="90" height="10" fill="#999999" />
<rect x="510" y="220" width="20" height="10" fill="#CCCCCC" />
<rect x="530" y="220" width="10" height="10" fill="#FFFFFF" />
<rect x="540" y="220" width="10" height="10" fill="#CCCCCC" />
<rect x="550" y="220" width="10" height="40" fill="#999999" />
<rect x="170" y="230" width="60" height="10" fill="#333333" />
<rect x="230" y="230" width="40" height="10" fill="#666666" />
<rect x="270" y="230" width="20" height="20" fill="#999999" />
<rect x="310" y="230" width="30" height="10" fill="#CCCCCC" />
<rect x="340" y="230" width="80" height="10" fill="#FFFFFF" />
<rect x="420" y="230" width="30" height="10" fill="#CCCCCC" />
<rect x="450" y="230" width="40" height="10" fill="#999999" />
<rect x="490" y="230" width="30" height="10" fill="#CCCCCC" />
<rect x="520" y="230" width="10" height="10" fill="#FFFFFF" />
<rect x="530" y="230" width="10" height="20" fill="#CCCCCC" />
<rect x="540" y="230" width="10" height="220" fill="#999999" />
<rect x="560" y="230" width="10" height="250" fill="#666666" />
<rect x="590" y="230" width="10" height="290" fill="#333333" />
<rect x="160" y="240" width="60" height="20" fill="#333333" />
<rect x="220" y="240" width="40" height="10" fill="#666666" />
<rect x="260" y="240" width="10" height="30" fill="#999999" />
<rect x="290" y="240" width="10" height="10" fill="#999999" />
<rect x="300" y="240" width="10" height="10" fill="#CCCCCC" />
<rect x="310" y="240" width="30" height="10" fill="#FFFFFF" />
<rect x="420" y="240" width="30" height="10" fill="#FFFFFF" />
<rect x="450" y="240" width="50" height="10" fill="#CCCCCC" />
<rect x="500" y="240" width="20" height="20" fill="#FFFFFF" />
<rect x="520" y="240" width="10" height="30" fill="#CCCCCC" />
<rect x="150" y="250" width="10" height="320" fill="#333333" />
<rect x="220" y="250" width="30" height="10" fill="#666666" />
<rect x="250" y="250" width="10" height="30" fill="#999999" />
<rect x="270" y="250" width="10" height="10" fill="#999999" />
<rect x="280" y="250" width="20" height="10" fill="#CCCCCC" />
<rect x="300" y="250" width="10" height="10" fill="#FFFFFF" />
<rect x="450" y="250" width="10" height="10" fill="#FFFFFF" />
<rect x="460" y="250" width="20" height="10" fill="#CCCCCC" />
<rect x="480" y="250" width="20" height="30" fill="#FFFFFF" />
<rect x="530" y="250" width="10" height="90" fill="#999999" />
<rect x="160" y="260" width="50" height="10" fill="#333333" />
<rect x="210" y="260" width="30" height="10" fill="#666666" />
<rect x="240" y="260" width="10" height="40" fill="#999999" />
<rect x="270" y="260" width="10" height="10" fill="#CCCCCC" />
<rect x="280" y="260" width="20" height="10" fill="#FFFFFF" />
<rect x="460" y="260" width="20" height="10" fill="#FFFFFF" />
<rect x="500" y="260" width="10" height="20" fill="#FFFFFF" />
<rect x="510" y="260" width="10" height="50" fill="#CCCCCC" />
<rect x="550" y="260" width="10" height="80" fill="#666666" />
<rect x="140" y="270" width="10" height="320" fill="#333333" />
<rect x="160" y="270" width="40" height="20" fill="#333333" />
<rect x="200" y="270" width="30" height="20" fill="#666666" />
<rect x="230" y="270" width="10" height="40" fill="#999999" />
<rect x="260" y="270" width="10" height="10" fill="#CCCCCC" />
<rect x="270" y="270" width="10" height="10" fill="#FFFFFF" />
<rect x="520" y="270" width="10" height="40" fill="#999999" />
<rect x="250" y="280" width="10" height="20" fill="#CCCCCC" />
<rect x="260" y="280" width="10" height="20" fill="#FFFFFF" />
<rect x="490" y="280" width="10" height="20" fill="#FFFFFF" />
<rect x="500" y="280" width="10" height="20" fill="#CCCCCC" />
<rect x="160" y="290" width="30" height="20" fill="#333333" />
<rect x="190" y="290" width="30" height="20" fill="#666666" />
<rect x="220" y="290" width="10" height="50" fill="#999999" />
<rect x="130" y="300" width="10" height="300" fill="#333333" />
<rect x="240" y="300" width="10" height="10" fill="#CCCCCC" />
<rect x="250" y="300" width="10" height="10" fill="#FFFFFF" />
<rect x="500" y="300" width="10" height="10" fill="#FFFFFF" />
<rect x="160" y="310" width="20" height="30" fill="#333333" />
<rect x="180" y="310" width="30" height="30" fill="#666666" />
<rect x="210" y="310" width="10" height="220" fill="#999999" />
<rect x="230" y="310" width="10" height="30" fill="#CCCCCC" />
<rect x="240" y="310" width="10" height="30" fill="#FFFFFF" />
<rect x="510" y="310" width="10" height="30" fill="#FFFFFF" />
<rect x="520" y="310" width="10" height="30" fill="#CCCCCC" />
<rect x="120" y="330" width="10" height="290" fill="#333333" />
<rect x="160" y="340" width="10" height="190" fill="#333333" />
<rect x="170" y="340" width="30" height="190" fill="#666666" />
<rect x="200" y="340" width="10" height="80" fill="#999999" />
<rect x="220" y="340" width="10" height="80" fill="#CCCCCC" />
<rect x="230" y="340" width="10" height="80" fill="#FFFFFF" />
<rect x="520" y="340" width="10" height="80" fill="#FFFFFF" />
<rect x="530" y="340" width="10" height="80" fill="#CCCCCC" />
<rect x="550" y="340" width="10" height="80" fill="#999999" />
<rect x="200" y="420" width="10" height="70" fill="#666666" />
<rect x="220" y="420" width="10" height="90" fill="#999999" />
<rect x="230" y="420" width="10" height="30" fill="#CCCCCC" />
<rect x="240" y="420" width="10" height="30" fill="#FFFFFF" />
<rect x="510" y="420" width="10" height="30" fill="#FFFFFF" />
<rect x="520" y="420" width="10" height="30" fill="#CCCCCC" />
<rect x="530" y="420" width="10" height="50" fill="#999999" />
<rect x="550" y="420" width="10" height="80" fill="#666666" />
<rect x="580" y="430" width="10" height="100" fill="#333333" />
<rect x="230" y="450" width="10" height="40" fill="#999999" />
<rect x="240" y="450" width="10" height="50" fill="#CCCCCC" />
<rect x="250" y="450" width="10" height="10" fill="#FFFFFF" />
<rect x="500" y="450" width="10" height="10" fill="#FFFFFF" />
<rect x="510" y="450" width="10" height="10" fill="#CCCCCC" />
<rect x="520" y="450" width="10" height="40" fill="#999999" />
<rect x="540" y="450" width="10" height="60" fill="#666666" />
<rect x="250" y="460" width="10" height="20" fill="#CCCCCC" />
<rect x="260" y="460" width="10" height="50" fill="#FFFFFF" />
<rect x="490" y="460" width="10" height="20" fill="#FFFFFF" />
<rect x="500" y="460" width="10" height="20" fill="#CCCCCC" />
<rect x="510" y="460" width="10" height="40" fill="#999999" />
<rect x="570" y="460" width="10" height="90" fill="#333333" />
<rect x="530" y="470" width="10" height="50" fill="#666666" />
<rect x="110" y="480" width="10" height="150" fill="#333333" />
<rect x="250" y="480" width="10" height="40" fill="#FFFFFF" />
<rect x="270" y="480" width="10" height="30" fill="#FFFFFF" />
<rect x="480" y="480" width="10" height="10" fill="#FFFFFF" />
<rect x="490" y="480" width="10" height="10" fill="#CCCCCC" />
<rect x="500" y="480" width="10" height="30" fill="#999999" />
<rect x="560" y="480" width="10" height="80" fill="#333333" />
<rect x="200" y="490" width="10" height="50" fill="#999999" />
<rect x="230" y="490" width="10" height="30" fill="#CCCCCC" />
<rect x="280" y="490" width="20" height="10" fill="#FFFFFF" />
<rect x="460" y="490" width="20" height="10" fill="#FFFFFF" />
<rect x="480" y="490" width="10" height="10" fill="#CCCCCC" />
<rect x="490" y="490" width="10" height="30" fill="#999999" />
<rect x="520" y="490" width="10" height="40" fill="#666666" />
<rect x="240" y="500" width="10" height="20" fill="#FFFFFF" />
<rect x="280" y="500" width="20" height="20" fill="#CCCCCC" />
<rect x="300" y="500" width="10" height="10" fill="#FFFFFF" />
<rect x="450" y="500" width="10" height="10" fill="#FFFFFF" />
<rect x="460" y="500" width="20" height="10" fill="#CCCCCC" />
<rect x="480" y="500" width="10" height="30" fill="#999999" />
<rect x="510" y="500" width="10" height="40" fill="#666666" />
<rect x="550" y="500" width="10" height="70" fill="#333333" />
<rect x="220" y="510" width="10" height="20" fill="#CCCCCC" />
<rect x="260" y="510" width="20" height="10" fill="#CCCCCC" />
<rect x="300" y="510" width="10" height="10" fill="#CCCCCC" />
<rect x="310" y="510" width="30" height="10" fill="#FFFFFF" />
<rect x="420" y="510" width="30" height="10" fill="#FFFFFF" />
<rect x="450" y="510" width="10" height="10" fill="#CCCCCC" />
<rect x="460" y="510" width="20" height="20" fill="#999999" />
<rect x="500" y="510" width="10" height="40" fill="#666666" />
<rect x="540" y="510" width="10" height="70" fill="#333333" />
<rect x="230" y="520" width="10" height="10" fill="#FFFFFF" />
<rect x="240" y="520" width="30" height="10" fill="#CCCCCC" />
<rect x="270" y="520" width="40" height="30" fill="#999999" />
<rect x="310" y="520" width="30" height="10" fill="#CCCCCC" />
<rect x="340" y="520" width="80" height="10" fill="#FFFFFF" />
<rect x="420" y="520" width="30" height="10" fill="#CCCCCC" />
<rect x="450" y="520" width="10" height="20" fill="#999999" />
<rect x="490" y="520" width="10" height="40" fill="#666666" />
<rect x="530" y="520" width="10" height="60" fill="#333333" />
<rect x="160" y="530" width="30" height="20" fill="#666666" />
<rect x="190" y="530" width="10" height="30" fill="#999999" />
<rect x="210" y="530" width="10" height="10" fill="#CCCCCC" />
<rect x="220" y="530" width="10" height="10" fill="#FFFFFF" />
<rect x="230" y="530" width="20" height="10" fill="#CCCCCC" />
<rect x="250" y="530" width="20" height="20" fill="#999999" />
<rect x="310" y="530" width="30" height="20" fill="#999999" />
<rect x="340" y="530" width="80" height="10" fill="#CCCCCC" />
<rect x="420" y="530" width="30" height="20" fill="#999999" />
<rect x="460" y="530" width="10" height="10" fill="#999999" />
<rect x="470" y="530" width="20" height="30" fill="#666666" />
<rect x="520" y="530" width="10" height="60" fill="#333333" />
<rect x="200" y="540" width="10" height="20" fill="#CCCCCC" />
<rect x="210" y="540" width="10" height="10" fill="#FFFFFF" />
<rect x="220" y="540" width="10" height="10" fill="#CCCCCC" />
<rect x="230" y="540" width="20" height="20" fill="#999999" />
<rect x="340" y="540" width="80" height="20" fill="#999999" />
<rect x="450" y="540" width="20" height="30" fill="#666666" />
<rect x="510" y="540" width="10" height="60" fill="#333333" />
<rect x="160" y="550" width="20" height="20" fill="#666666" />
<rect x="180" y="550" width="10" height="20" fill="#999999" />
<rect x="210" y="550" width="10" height="10" fill="#CCCCCC" />
<rect x="220" y="550" width="10" height="20" fill="#999999" />
<rect x="250" y="550" width="10" height="10" fill="#999999" />
<rect x="260" y="550" width="80" height="40" fill="#666666" />
<rect x="420" y="550" width="30" height="30" fill="#666666" />
<rect x="500" y="550" width="10" height="60" fill="#333333" />
<rect x="190" y="560" width="10" height="10" fill="#CCCCCC" />
<rect x="200" y="560" width="20" height="10" fill="#999999" />
<rect x="230" y="560" width="30" height="30" fill="#666666" />
<rect x="340" y="560" width="80" height="30" fill="#666666" />
<rect x="470" y="560" width="10" height="10" fill="#666666" />
<rect x="480" y="560" width="20" height="50" fill="#333333" />
<rect x="100" y="570" width="10" height="70" fill="#333333" />
<rect x="150" y="570" width="20" height="10" fill="#666666" />
<rect x="170" y="570" width="10" height="10" fill="#999999" />
<rect x="180" y="570" width="10" height="10" fill="#CCCCCC" />
<rect x="190" y="570" width="20" height="10" fill="#999999" />
<rect x="210" y="570" width="20" height="30" fill="#666666" />
<rect x="450" y="570" width="10" height="10" fill="#666666" />
<rect x="460" y="570" width="20" height="50" fill="#333333" />
<rect x="150" y="580" width="10" height="20" fill="#666666" />
<rect x="160" y="580" width="10" height="20" fill="#999999" />
<rect x="170" y="580" width="10" height="10" fill="#CCCCCC" />
<rect x="180" y="580" width="10" height="10" fill="#999999" />
<rect x="190" y="580" width="20" height="20" fill="#666666" />
<rect x="420" y="580" width="10" height="10" fill="#666666" />
<rect x="430" y="580" width="30" height="50" fill="#333333" />
<rect x="140" y="590" width="10" height="20" fill="#666666" />
<rect x="170" y="590" width="10" height="10" fill="#999999" />
<rect x="180" y="590" width="10" height="20" fill="#666666" />
<rect x="230" y="590" width="200" height="50" fill="#333333" />
<rect x="130" y="600" width="10" height="20" fill="#666666" />
<rect x="150" y="600" width="10" height="10" fill="#999999" />
<rect x="160" y="600" width="20" height="10" fill="#666666" />
<rect x="190" y="600" width="40" height="50" fill="#333333" />
<rect x="90" y="610" width="10" height="50" fill="#333333" />
<rect x="140" y="610" width="10" height="10" fill="#999999" />
<rect x="150" y="610" width="20" height="10" fill="#666666" />
<rect x="170" y="610" width="20" height="50" fill="#333333" />
<rect x="480" y="610" width="10" height="10" fill="#333333" />
<rect x="120" y="620" width="10" height="30" fill="#666666" />
<rect x="130" y="620" width="10" height="10" fill="#999999" />
<rect x="140" y="620" width="20" height="10" fill="#666666" />
<rect x="160" y="620" width="10" height="40" fill="#333333" />
<rect x="110" y="630" width="10" height="30" fill="#666666" />
<rect x="130" y="630" width="10" height="10" fill="#666666" />
<rect x="140" y="630" width="20" height="30" fill="#333333" />
<rect x="80" y="640" width="10" height="30" fill="#333333" />
<rect x="100" y="640" width="10" height="20" fill="#666666" />
<rect x="130" y="640" width="10" height="30" fill="#333333" />
<rect x="230" y="640" width="40" height="10" fill="#333333" />
<rect x="120" y="650" width="10" height="20" fill="#333333" />
<rect x="70" y="660" width="10" height="20" fill="#333333" />
<rect x="90" y="660" width="10" height="10" fill="#666666" />
<rect x="100" y="660" width="20" height="20" fill="#333333" />
<rect x="140" y="660" width="10" height="10" fill="#333333" />
<rect x="80" y="670" width="10" height="10" fill="#666666" />
<rect x="90" y="670" width="10" height="20" fill="#333333" />
<rect x="60" y="680" width="10" height="30" fill="#333333" />
<rect x="70" y="680" width="10" height="10" fill="#666666" />
<rect x="80" y="680" width="10" height="10" fill="#333333" />
<rect x="50" y="690" width="10" height="30" fill="#333333" />
<rect x="70" y="690" width="10" height="10" fill="#333333" />
<rect x="40" y="700" width="10" height="20" fill="#333333" />
<rect x="30" y="720" width="10" height="10" fill="#333333" />
<rect x="20" y="730" width="10" height="10" fill="#333333" />
<rect x="10" y="740" width="10" height="10" fill="#333333" />
<rect x="0" y="750" width="10" height="10" fill="#333333" />
</svg>